# xmcd
#
# Track frame offsets: 
#        150
#        16734
#        46732
#        85244
#        119580
#        151804
#        168015
#        189906
#        216265
#        248149
#
# Disc length: 4680 seconds
#
# Revision: 0
# Processed by: cddbd v1.5.1PL2 Copyright (c) Steve Scherf et al.
# Submitted via: ExactAudioCopy v0.95b2
#
DISCID=7112460a
DTITLE=Mesh - Friends Like These
DYEAR=2003
DGENRE=Synthpop
TTITLE0=Friends Like These (Video Edit) 
TTITLE1=Friends Like These (Icon Of Coil Xenomorph Mix) 
TTITLE2=Friends Like These (Schiller Remix)
TTITLE3=Friends Like These (Decoder and Substance Remix)
TTITLE4=Friends Like These (Tom Wax Remix)
TTITLE5=Friends Like These (Mesh - Binary Girl Edit)
TTITLE6=Friends Like These (hello2ufriendmix) 
TTITLE7=Leave You Nothing (Mesh 120 Club Mix)
TTITLE8=From This Height 
TTITLE9=Data
EXTD=
EXTT0=
EXTT1=
EXTT2=
EXTT3=
EXTT4=
EXTT5=
EXTT6=
EXTT7=
EXTT8=
EXTT9=
PLAYORDER=
